<?xml version="1.0" encoding="UTF-8" standalone="no"?>
<!DOCTYPE svg PUBLIC "-//W3C//DTD SVG 1.1//EN"
 "http://www.w3.org/Graphics/SVG/1.1/DTD/svg11.dtd">
<!-- Generated by graphviz version 2.40.1 (20161225.0304)
 -->
<!-- Title: %3 Pages: 1 -->
<svg width="740pt" height="332pt"
 viewBox="0.00 0.00 739.65 332.00" xmlns="http://www.w3.org/2000/svg" xmlns:xlink="http://www.w3.org/1999/xlink">
<g id="graph0" class="graph" transform="scale(1 1) rotate(0) translate(4 328)">
<title>%3</title>
<polygon fill="#ffffff" stroke="transparent" points="-4,4 -4,-328 735.6492,-328 735.6492,4 -4,4"/>
<!-- [root] docker_container.contenedor (expand) -->
<g id="node1" class="node">
<title>[root] docker_container.contenedor (expand)</title>
<polygon fill="none" stroke="#000000" points="478.8246,-180 252.8246,-180 252.8246,-144 478.8246,-144 478.8246,-180"/>
<text text-anchor="middle" x="365.8246" y="-158.3" font-family="Times,serif" font-size="14.00" fill="#000000">docker_container.contenedor</text>
</g>
<!-- [root] docker_image.imagen (expand) -->
<g id="node2" class="node">
<title>[root] docker_image.imagen (expand)</title>
<polygon fill="none" stroke="#000000" points="452.8246,-108 278.8246,-108 278.8246,-72 452.8246,-72 452.8246,-108"/>
<text text-anchor="middle" x="365.8246" y="-86.3" font-family="Times,serif" font-size="14.00" fill="#000000">docker_image.imagen</text>
</g>
<!-- [root] docker_container.contenedor (expand)&#45;&gt;[root] docker_image.imagen (expand) -->
<g id="edge1" class="edge">
<title>[root] docker_container.contenedor (expand)&#45;&gt;[root] docker_image.imagen (expand)</title>
<path fill="none" stroke="#000000" d="M365.8246,-143.8314C365.8246,-136.131 365.8246,-126.9743 365.8246,-118.4166"/>
<polygon fill="#000000" stroke="#000000" points="369.3247,-118.4132 365.8246,-108.4133 362.3247,-118.4133 369.3247,-118.4132"/>
</g>
<!-- [root] provider[&quot;registry.terraform.io/kreuzwerker/docker&quot;] -->
<g id="node3" class="node">
<title>[root] provider[&quot;registry.terraform.io/kreuzwerker/docker&quot;]</title>
<polygon fill="none" stroke="#000000" points="365.8246,-36 .1753,-18 365.8246,0 731.4739,-18 365.8246,-36"/>
<text text-anchor="middle" x="365.8246" y="-14.3" font-family="Times,serif" font-size="14.00" fill="#000000">provider[&quot;registry.terraform.io/kreuzwerker/docker&quot;]</text>
</g>
<!-- [root] docker_image.imagen (expand)&#45;&gt;[root] provider[&quot;registry.terraform.io/kreuzwerker/docker&quot;] -->
<g id="edge2" class="edge">
<title>[root] docker_image.imagen (expand)&#45;&gt;[root] provider[&quot;registry.terraform.io/kreuzwerker/docker&quot;]</title>
<path fill="none" stroke="#000000" d="M365.8246,-71.8314C365.8246,-64.131 365.8246,-54.9743 365.8246,-46.4166"/>
<polygon fill="#000000" stroke="#000000" points="369.3247,-46.4132 365.8246,-36.4133 362.3247,-46.4133 369.3247,-46.4132"/>
</g>
<!-- [root] provider[&quot;registry.terraform.io/kreuzwerker/docker&quot;] (close) -->
<g id="node4" class="node">
<title>[root] provider[&quot;registry.terraform.io/kreuzwerker/docker&quot;] (close)</title>
<ellipse fill="none" stroke="#000000" cx="365.8246" cy="-234" rx="321.143" ry="18"/>
<text text-anchor="middle" x="365.8246" y="-230.3" font-family="Times,serif" font-size="14.00" fill="#000000">[root] provider[&quot;registry.terraform.io/kreuzwerker/docker&quot;] (close)</text>
</g>
<!-- [root] provider[&quot;registry.terraform.io/kreuzwerker/docker&quot;] (close)&#45;&gt;[root] docker_container.contenedor (expand) -->
<g id="edge3" class="edge">
<title>[root] provider[&quot;registry.terraform.io/kreuzwerker/docker&quot;] (close)&#45;&gt;[root] docker_container.contenedor (expand)</title>
<path fill="none" stroke="#000000" d="M365.8246,-215.8314C365.8246,-208.131 365.8246,-198.9743 365.8246,-190.4166"/>
<polygon fill="#000000" stroke="#000000" points="369.3247,-190.4132 365.8246,-180.4133 362.3247,-190.4133 369.3247,-190.4132"/>
</g>
<!-- [root] root -->
<g id="node5" class="node">
<title>[root] root</title>
<ellipse fill="none" stroke="#000000" cx="365.8246" cy="-306" rx="58.4896" ry="18"/>
<text text-anchor="middle" x="365.8246" y="-302.3" font-family="Times,serif" font-size="14.00" fill="#000000">[root] root</text>
</g>
<!-- [root] root&#45;&gt;[root] provider[&quot;registry.terraform.io/kreuzwerker/docker&quot;] (close) -->
<g id="edge4" class="edge">
<title>[root] root&#45;&gt;[root] provider[&quot;registry.terraform.io/kreuzwerker/docker&quot;] (close)</title>
<path fill="none" stroke="#000000" d="M365.8246,-287.8314C365.8246,-280.131 365.8246,-270.9743 365.8246,-262.4166"/>
<polygon fill="#000000" stroke="#000000" points="369.3247,-262.4132 365.8246,-252.4133 362.3247,-262.4133 369.3247,-262.4132"/>
</g>
</g>
</svg>
